<?xml version="1.0" standalone="no"?>
<!DOCTYPE svg PUBLIC "-//W3C//DTD SVG 20010904//EN"
 "http://www.w3.org/TR/2001/REC-SVG-20010904/DTD/svg10.dtd">
<svg version="1.0" xmlns="http://www.w3.org/2000/svg"
 width="260.000000pt" height="260.000000pt" viewBox="0 0 260.000000 260.000000"
 preserveAspectRatio="xMidYMid meet">
<metadata>
Created by potrace 1.11, written by Peter Selinger 2001-2013
</metadata>
<g transform="translate(0.000000,260.000000) scale(0.100000,-0.100000)"
fill="#000000" stroke="none">
<path d="M1724 2178 c-3 -4 -12 -8 -20 -8 -8 0 -21 -6 -30 -12 -16 -15 -171
-172 -354 -362 -69 -71 -161 -166 -205 -211 -44 -44 -109 -112 -143 -151 -152
-165 -240 -260 -282 -303 -25 -26 -61 -67 -81 -91 -20 -25 -54 -63 -75 -85
-22 -23 -57 -63 -79 -90 -22 -28 -51 -61 -65 -75 -14 -14 -38 -43 -55 -65 -16
-21 -36 -46 -45 -55 -8 -8 -26 -31 -40 -50 -13 -19 -32 -42 -42 -51 -10 -9
-18 -21 -18 -26 0 -5 -15 -24 -34 -42 -19 -19 -40 -47 -47 -62 -6 -16 -15 -29
-20 -29 -5 0 -9 -9 -9 -20 0 -11 -4 -20 -10 -20 -5 0 -10 -11 -10 -24 0 -14
-5 -28 -10 -31 -21 -13 -8 -74 25 -111 35 -38 101 -48 167 -25 64 22 138 62
138 73 0 4 6 8 13 8 7 0 32 17 56 39 23 21 60 47 82 56 21 10 39 22 39 27 0 4
9 8 20 8 11 0 20 4 20 8 0 4 37 30 83 58 45 27 83 52 85 57 2 4 10 7 18 7 8 0
14 4 14 9 0 5 8 11 18 14 17 6 72 37 82 47 13 13 91 60 100 60 5 0 10 5 10 10
0 6 6 10 13 10 7 0 23 9 35 20 12 11 23 20 26 20 2 0 33 18 67 40 35 22 72 43
82 46 9 4 17 10 17 15 0 5 6 9 13 9 7 0 23 9 35 20 12 11 28 20 37 20 8 0 15
4 15 8 0 5 19 19 43 32 47 27 106 64 124 80 7 5 17 10 23 10 5 0 10 5 10 10 0
6 6 10 13 10 7 0 23 9 35 20 12 11 24 20 27 20 9 0 90 54 93 63 2 4 11 7 21 7
9 0 23 9 31 20 8 11 18 20 22 20 8 0 329 208 338 219 3 3 21 15 40 25 48 27
59 44 59 91 0 32 -2 36 -9 20 -7 -16 -9 -12 -8 18 2 33 5 38 24 36 7 -1 44 42
44 52 0 4 8 10 19 14 29 9 67 45 55 53 -6 4 -18 18 -27 32 -9 13 -17 19 -17
12 0 -6 -5 -12 -11 -12 -6 0 -8 8 -5 18 4 11 -2 23 -14 32 -11 8 -20 21 -20
28 0 8 -6 12 -12 10 -19 -7 -39 18 -32 37 5 11 0 18 -15 22 -11 3 -18 9 -15
14 3 5 0 9 -5 9 -6 0 -11 7 -11 16 0 9 -9 18 -20 21 -11 3 -20 11 -20 17 0 6
-9 19 -20 29 -11 9 -20 12 -20 7 0 -5 -9 -2 -19 7 -11 9 -18 19 -17 22 7 12
-21 31 -45 31 -8 0 -7 5 1 15 11 13 10 14 -5 9 -13 -5 -16 -4 -11 4 4 7 2 12
-3 12 -6 0 -11 8 -11 18 0 11 -14 27 -35 38 -19 10 -35 22 -35 26 0 4 -12 0
-27 -8 -16 -7 -34 -14 -40 -14 -7 0 -13 -4 -13 -9 0 -5 -11 -4 -24 2 -13 7
-23 14 -20 18 2 3 -8 4 -21 1 -18 -3 -25 0 -25 11 0 8 6 17 13 20 6 3 2 4 -11
4 -13 -1 -26 -5 -28 -9z m566 -533 c0 -8 -7 -15 -15 -15 -16 0 -20 12 -8 23
11 12 23 8 23 -8z m-395 -265 c3 -5 1 -10 -4 -10 -6 0 -11 5 -11 10 0 6 2 10
4 10 3 0 8 -4 11 -10z m-405 -351 c0 -5 -4 -9 -10 -9 -5 0 -10 7 -10 16 0 8 5
12 10 9 6 -3 10 -10 10 -16z m-703 -65 c-3 -3 -12 -4 -19 -1 -8 3 -5 6 6 6 11
1 17 -2 13 -5z m191 -32 c2 -7 -6 -12 -17 -12 -21 0 -27 11 -14 24 9 9 26 2
31 -12z m-172 -108 c-3 -9 -6 -24 -6 -35 0 -20 -111 -139 -129 -139 -13 0 -61
-48 -61 -60 0 -6 -9 -10 -20 -10 -11 0 -20 -4 -20 -10 0 -17 26 -11 45 10 10
11 29 20 42 20 28 0 31 -16 4 -25 -10 -3 -22 -16 -25 -29 -3 -12 -17 -28 -30
-36 -21 -11 -27 -10 -41 4 -9 9 -19 16 -21 16 -13 0 -75 -70 -70 -79 11 -17
-6 -41 -30 -41 -16 0 -24 -6 -24 -17 0 -10 -12 -31 -26 -48 -14 -16 -36 -42
-49 -57 -67 -79 -212 -100 -246 -37 -15 29 -1 78 32 113 16 17 29 34 29 39 0
4 6 7 14 7 8 0 16 4 18 8 2 4 28 20 58 35 79 40 124 68 128 78 2 5 12 9 23 9
14 0 19 7 19 25 0 29 28 45 41 24 7 -11 17 -6 46 23 21 21 45 44 53 52 30 28
50 57 50 71 0 9 9 15 23 15 12 0 29 9 37 20 8 11 20 20 28 20 7 0 20 7 28 15
9 8 24 15 35 15 10 0 19 5 19 10 0 6 7 10 16 10 11 0 14 -5 10 -16z m-522
-299 c3 -8 1 -15 -4 -15 -6 0 -10 7 -10 15 0 8 2 15 4 15 2 0 6 -7 10 -15z
m246 -50 c0 -8 -4 -15 -10 -15 -5 0 -10 7 -10 15 0 8 5 15 10 15 6 0 10 -7 10
-15z"/>
<path d="M2235 1830 c3 -5 11 -10 16 -10 6 0 7 5 4 10 -3 6 -11 10 -16 10 -6
0 -7 -4 -4 -10z"/>
</g>
</svg>
